PathFileType	4	(X/Y/Z)	0_coords_data.trc
DataRate	CameraRate	NumFrames	NumMarkers	Units	OrigDataRate	OrigDataStartFrame	OrigNumFrames
30.0	30.0	5	21	m	30.0	1	65
Frame#	Time	THUMB_TIP	THUMB_IP	THUMB_MCP	THUMB_CMC	INDEX_TIP	INDEX_DIP	INDEX_PIP	INDEX_MCP	MIDDLE_TIP	MIDDLE_DIP	MIDDLE_PIP	MIDDLE_MCP	RING_TIP	RING_DIP	RING_PIP	RING_MCP	PINKY_TIP	PINKY_DIP	PINKY_PIP	PINKY_MCP	WRIST
X1	Y1	Z1	X2	Y2	Z2	X3	Y3	Z3	X4	Y4	Z4	X5	Y5	Z5	X6	Y6	Z6	X7	Y7	Z7	X8	Y8	Z8	X9	Y9	Z9	X10	Y10	Z10	X11	Y11	Z11	X12	Y12	Z12	X13	Y13	Z13	X14	Y14	Z14	X15	Y15	Z15	X16	Y16	Z16	X17	Y17	Z17	X18	Y18	Z18	X19	Y19	Z19	X20	Y20	Z20	X21	Y21	Z21
0	-2.749317978547796e-18	0.534872629169031	-0.00822196732760494	-0.10723687509282342	0.5144962673539206	-0.01087468010245829	-0.11752118324232186	0.4837448520397374	-0.015542188421318492	-0.11869796795839994	0.4781364935529422	-0.025906183239870928	-0.0756744403661091	0.49852330782912524	-0.004654730477736901	-0.10933068495518436	0.514445315194119	-0.0024807408550916454	-0.11768313672635408	0.5265572826875962	0.018764621602918252	-0.12350934050452175	0.4918727253198226	0.03557314984562587	-0.10539605939601684	0.5003627411105787	-0.01584677082819408	-0.09709140846598491	0.5174624488834352	-0.010653673444384504	-0.10002938968532217	0.5369071732868855	0.010668311533714947	-0.10411414175461173	0.5057315014652264	0.03703158235111326	-0.08597017969345411	0.502602728858812	-0.007382604368887602	-0.08231769608529854	0.520203618978448	-0.011263424032262326	-0.08193311093625066	0.5420883714853927	-7.880310177055261e-05	-0.08595080198347974	0.5205900133777599	0.029350509123135304	-0.06844488827853443	0.505721152066209	-0.017686195489558076	-0.06345174612428134	0.5214855652690141	-0.02128126597772695	-0.06906946314779902	0.5406054910650254	-0.012608167074718457	-0.06920292465407174	0.5259727555929254	0.014368185613719331	-0.05025449729894388	0.4622830810018609	-0.023011742144276925	-0.051989820119430985
1	0.03333333333333339	0.5345699455810426	-0.008799154005830756	-0.1064012954280415	0.5144606895648597	-0.01113448035921516	-0.11727162538157992	0.483664762677787	-0.015421121726950981	-0.11870535930057965	0.4780108791845705	-0.02601690281841973	-0.0757442952482682	0.49845052575132254	-0.004647359920000871	-0.1092642023899954	0.5144629438910633	-0.002591712808106106	-0.117472538413177	0.5270138776854179	0.01846535326870713	-0.12304782873086037	0.4921828471244719	0.03543674819258169	-0.10537278535325167	0.49999297001579557	-0.015748668939521426	-0.09702399726310755	0.5172116900225926	-0.010878032677518301	-0.09981551723093637	0.5371370919357771	0.01003716261367038	-0.10368107211083483	0.5060689699525173	0.03680100563628863	-0.08594364208013586	0.5026025080507466	-0.0067470797782043235	-0.0845892103541716	0.5196405127198874	-0.01194174492768929	-0.08181038850326752	0.5418412386841054	-0.0013956941966231096	-0.08582144318246104	0.5210921819173434	0.02873443263710751	-0.06860595787785809	0.505200536160837	-0.018228339630504076	-0.06316361250904098	0.5207851500768526	-0.02229052895609651	-0.06896175246697389	0.5401487575188394	-0.014178373909704334	-0.06919768961100325	0.5265117043888942	0.013442540362673006	-0.05043604448886552	0.462283081001861	-0.023011742144276925	-0.051989820119430985
2	0.06666666666666676	0.5343050204422445	-0.009343496085188363	-0.10575683305319991	0.5144270322879653	-0.011403806429477803	-0.11709794006369723	0.4835977733090461	-0.01537192763373496	-0.11871991568591142	0.4779014528211255	-0.02612221704358919	-0.07580286533872105	0.49838471810485396	-0.004656023962089195	-0.10924605043863825	0.5144778759049282	-0.0027472561083783376	-0.11733102893598438	0.5274014538910026	0.01813531757312714	-0.12270774554320411	0.49247872467298026	0.03527675912598771	-0.10538117463449412	0.4996926198014041	-0.015733115965495426	-0.09701314469879584	0.5170064650878885	-0.011130398404613384	-0.09966752832789516	0.5373264841301608	0.009431033666701505	-0.10337345429833643	0.50639061078527	0.03655651711375718	-0.08595714558631629	0.5030911908538609	-0.006171857377050283	-0.08676083476851548	0.5191899375017921	-0.01254021146650286	-0.08173346741003898	0.5416368405357549	-0.0025337967553051843	-0.08575692212103023	0.521540067778829	0.028165733651933644	-0.0687751851211971	0.5047991657965243	-0.018694842542892665	-0.06294480897480936	0.5202150862781298	-0.023156656319606617	-0.06889809491844914	0.5397691560038747	-0.015518844445174262	-0.06923603859939681	0.5269801220748915	0.012612784932892418	-0.050636697463259245	0.4622830810018609	-0.023011742144276925	-0.051989820119430985
3	0.10000000000000014	0.5340819314671494	-0.00984945433755735	-0.10528343239221916	0.5143957517312345	-0.01167511759428319	-0.11699331202773611	0.48354099019340246	-0.015382903207726173	-0.118741458557138	0.47780677368401503	-0.026221177627822945	-0.07585159298707417	0.4983247862866098	-0.004679880369376055	-0.10926867406724976	0.5144886647078901	-0.002939936686955913	-0.11725000417971086	0.5277255803161264	0.01778420483138099	-0.12247531340581165	0.49275734087382816	0.035099802273902636	-0.10541575861928104	0.49944813324530035	-0.015792657122187914	-0.09705133178824576	0.5168357374244636	-0.011402256728202276	-0.09958028518624107	0.5374788965502909	0.008854350255207089	-0.10317742360802443	0.5066935282155466	0.03630408762591908	-0.08600416137357805	0.5037724889281786	-0.005827700600175234	-0.08845345674492158	0.5188375810100893	-0.013068315067799374	-0.0816994577299093	0.5414734501411959	-0.0035095228443740023	-0.08575246882153073	0.5219356913975045	0.027645950333644476	-0.0689496920174697	0.504499021968901	-0.019104073907256325	-0.06279490546663938	0.5197636831108319	-0.023896894230753474	-0.06887922905835436	0.5394644851313005	-0.016651330087532723	-0.06931765692787181	0.5273833443273697	0.011878156118615202	-0.05085152834907061	0.4622830810018609	-0.023011742144276925	-0.051989820119430985
4	0.13333333333333353	0.5339010717068787	-0.010312511495362275	-0.10496076699195256	0.514366283484015	-0.011941323983556962	-0.11694988785072143	0.4834914595983397	-0.015442064317897741	-0.11876924684224976	0.47772536336509674	-0.026312829095472057	-0.07589187976613804	0.4982693833410665	-0.004716844713390289	-0.10932471283823919	0.5144936325192375	-0.0031608690179805166	-0.11722108404531362	0.5279910394381654	0.017422129059398217	-0.12233674916448439	0.49301581337373357	0.03491257729672703	-0.105470988695439	0.49924851773541323	-0.015916751947204766	-0.09713045135136214	0.5166912102402472	-0.011684637600240855	-0.09954740942630483	0.5375974961027896	0.00831200343295646	-0.10307885513919846	0.5069749420189902	0.03604973017205815	-0.08607810169319752	0.5042973573498778	-0.0057511485786997385	-0.08949798308467954	0.5185698773726097	-0.01353296565245321	-0.0817044925168175	0.541347910305551	-0.004337778045636953	-0.08580201854862052	0.5222813699400949	0.027175998253364808	-0.06912659424010842	0.5042827683534858	-0.01946826084304465	-0.0627099199017975	0.5194177581900766	-0.02452547026564289	-0.06890319976809411	0.539229686871008	-0.017596423009247797	-0.06943967442764179	0.5277267768809326	0.011236351908079034	-0.051075644278271104	0.4622830810018609	-0.023011742144276925	-0.051989820119430985
